ffmpeg started on 2016-12-12 at 10:53:58
Report written to "Output/theora/results/ffmpeg/crowd_run_2160p5014000k.log"
Command line:
Tools/ffmpeg/ffmpeg -benchmark -y -i Input/y4m/crowd_run_2160p50.y4m -c:v libtheora -b:v 14000k -an Output/theora/encoded/crowd_run_2160p5014000k.mkv
ffmpeg version N-82227-gdb23fde Copyright (c) 2000-2016 the FFmpeg developers
  built with gcc 5.4.0 (Ubuntu 5.4.0-6ubuntu1~16.04.2) 20160609
  configuration: --prefix=/home/jaroslav/ffmpeg_build --pkg-config-flags=--static --extra-cflags=-I/home/jaroslav/ffmpeg_build/include --extra-ldflags=-L/home/jaroslav/ffmpeg_build/lib --bindir=/home/jaroslav/bin --enable-gpl --enable-libass --enable-libfdk-aac --enable-libfreetype --enable-libmp3lame --enable-libopus --enable-libtheora --enable-libvorbis --enable-libvpx --enable-libx264 --enable-libx265 --enable-nvenc --enable-libmfx --enable-libxvid --enable-libgsm --enable-libopencore-amrnb --enable-version3 --enable-nonfree
  libavutil      55. 35.100 / 55. 35.100
  libavcodec     57. 66.101 / 57. 66.101
  libavformat    57. 57.100 / 57. 57.100
  libavdevice    57.  2.100 / 57.  2.100
  libavfilter     6. 66.100 /  6. 66.100
  libswscale      4.  3.100 /  4.  3.100
  libswresample   2.  4.100 /  2.  4.100
  libpostproc    54.  2.100 / 54.  2.100
Input #0, yuv4mpegpipe, from 'Input/y4m/crowd_run_2160p50.y4m':
  Duration: 00:00:10.00, start: 0.000000, bitrate: 4976642 kb/s
    Stream #0:0: Video: rawvideo (I420 / 0x30323449), yuv420p(progressive), 3840x2160, SAR 1:1 DAR 16:9, 50 fps, 50 tbr, 50 tbn, 50 tbc
Output #0, matroska, to 'Output/theora/encoded/crowd_run_2160p5014000k.mkv':
  Metadata:
    encoder         : Lavf57.57.100
    Stream #0:0: Video: theora (libtheora) (theo / 0x6F656874), yuv420p, 3840x2160 [SAR 1:1 DAR 16:9], q=2-31, 14000 kb/s, 50 fps, 1k tbn, 50 tbc
    Metadata:
      encoder         : Lavc57.66.101 libtheora
Stream mapping:
  Stream #0:0 -> #0:0 (rawvideo (native) -> theora (libtheora))
Press [q] to stop, [?] for help
frame=    3 fps=0.0 q=-0.0 size=       4kB time=00:00:00.04 bitrate= 779.5kbits/s speed=0.052x    frame=    5 fps=3.4 q=-0.0 size=       4kB time=00:00:00.08 bitrate= 394.6kbits/s speed=0.0551x    frame=    7 fps=3.3 q=-0.0 size=       4kB time=00:00:00.12 bitrate= 264.1kbits/s speed=0.0562x    frame=    9 fps=3.2 q=-0.0 size=       4kB time=00:00:00.16 bitrate= 198.5kbits/s speed=0.0566x    frame=   11 fps=3.1 q=-0.0 size=       4kB time=00:00:00.20 bitrate= 159.0kbits/s speed=0.0566x    frame=   12 fps=1.6 q=-0.0 size=       4kB time=00:00:00.22 bitrate= 144.6kbits/s speed=0.0287x    frame=   13 fps=1.1 q=-0.0 size=     510kB time=00:00:00.24 bitrate=17351.5kbits/s speed=0.0206x    frame=   14 fps=1.1 q=-0.0 size=     510kB time=00:00:00.26 bitrate=16021.9kbits/s speed=0.0212x    frame=   16 fps=1.2 q=-0.0 size=     510kB time=00:00:00.30 bitrate=13892.7kbits/s speed=0.0232x    frame=   18 fps=1.3 q=-0.0 size=     510kB time=00:00:00.34 bitrate=12263.1kbits/s speed=0.0249x    frame=   20 fps=1.4 q=-0.0 size=     510kB time=00:00:00.38 bitrate=10975.6kbits/s speed=0.0265x    frame=   22 fps=1.4 q=-0.0 size=     510kB time=00:00:00.42 bitrate=9932.8kbits/s speed=0.0273x    frame=   24 fps=1.5 q=-0.0 size=     510kB time=00:00:00.46 bitrate=9070.9kbits/s speed=0.0286x    frame=   26 fps=1.6 q=-0.0 size=    1021kB time=00:00:00.50 bitrate=16692.7kbits/s speed=0.0301x    frame=   28 fps=1.6 q=-0.0 size=    1021kB time=00:00:00.54 bitrate=15458.5kbits/s speed=0.0312x    frame=   30 fps=1.7 q=-0.0 size=    1021kB time=00:00:00.58 bitrate=14394.2kbits/s speed=0.0322x    frame=   32 fps=1.7 q=-0.0 size=    1021kB time=00:00:00.62 bitrate=13467.1kbits/s speed=0.0332x    frame=   34 fps=1.8 q=-0.0 size=    1021kB time=00:00:00.66 bitrate=12652.1kbits/s speed=0.034x    frame=   35 fps=1.7 q=-0.0 size=    1021kB time=00:00:00.68 bitrate=12280.5kbits/s speed=0.0339x    frame=   37 fps=1.8 q=-0.0 size=    1526kB time=00:00:00.72 bitrate=17333.1kbits/s speed=0.0347x    frame=   39 fps=1.8 q=-0.0 size=    1526kB time=00:00:00.76 bitrate=16422.0kbits/s speed=0.0357x    frame=   41 fps=1.9 q=-0.0 size=    1526kB time=00:00:00.80 bitrate=15601.9kbits/s speed=0.0364x    frame=   43 fps=1.9 q=-0.0 size=    1526kB time=00:00:00.84 bitrate=14859.9kbits/s speed=0.037x    frame=   45 fps=1.9 q=-0.0 size=    1526kB time=00:00:00.88 bitrate=14185.2kbits/s speed=0.0376x    frame=   47 fps=1.9 q=-0.0 size=    1526kB time=00:00:00.92 bitrate=13569.1kbits/s speed=0.0382x    frame=   49 fps=2.0 q=-0.0 size=    2056kB time=00:00:00.96 bitrate=17524.2kbits/s speed=0.0387x    frame=   51 fps=2.0 q=-0.0 size=    2056kB time=00:00:01.00 bitrate=16823.9kbits/s speed=0.0395x    frame=   53 fps=2.0 q=-0.0 size=    2056kB time=00:00:01.04 bitrate=16177.5kbits/s speed=0.04x    frame=   55 fps=2.1 q=-0.0 size=    2056kB time=00:00:01.08 bitrate=15578.9kbits/s speed=0.0404x    frame=   57 fps=2.1 q=-0.0 size=    2056kB time=00:00:01.12 bitrate=15023.0kbits/s speed=0.0408x    frame=   59 fps=2.1 q=-0.0 size=    2056kB time=00:00:01.16 bitrate=14505.4kbits/s speed=0.0413x    frame=   61 fps=2.1 q=-0.0 size=    2588kB time=00:00:01.20 bitrate=17652.5kbits/s speed=0.0417x    frame=   63 fps=2.1 q=-0.0 size=    2588kB time=00:00:01.24 bitrate=17083.6kbits/s speed=0.0423x    frame=   65 fps=2.2 q=-0.0 size=    2588kB time=00:00:01.28 bitrate=16550.1kbits/s speed=0.0426x    frame=   67 fps=2.2 q=-0.0 size=    2588kB time=00:00:01.32 bitrate=16049.0kbits/s speed=0.043x    frame=   69 fps=2.2 q=-0.0 size=    2588kB time=00:00:01.36 bitrate=15577.3kbits/s speed=0.0433x    frame=   71 fps=2.2 q=-0.0 size=    2588kB time=00:00:01.40 bitrate=15132.5kbits/s speed=0.0436x    frame=   73 fps=2.2 q=-0.0 size=    3118kB time=00:00:01.44 bitrate=17723.0kbits/s speed=0.0439x    frame=   75 fps=2.2 q=-0.0 size=    3118kB time=00:00:01.48 bitrate=17244.4kbits/s speed=0.0444x    frame=   77 fps=2.2 q=-0.0 size=    3118kB time=00:00:01.52 bitrate=16790.9kbits/s speed=0.0442x    frame=   78 fps=2.2 q=-0.0 size=    3118kB time=00:00:01.54 bitrate=16572.9kbits/s speed=0.044x    frame=   80 fps=2.2 q=-0.0 size=    3118kB time=00:00:01.58 bitrate=16153.6kbits/s speed=0.0442x    frame=   82 fps=2.3 q=-0.0 size=    3118kB time=00:00:01.62 bitrate=15755.0kbits/s speed=0.0445x    frame=   84 fps=2.3 q=-0.0 size=    3118kB time=00:00:01.66 bitrate=15375.6kbits/s speed=0.0447x    frame=   86 fps=2.3 q=-0.0 size=    3645kB time=00:00:01.70 bitrate=17553.8kbits/s speed=0.0451x    frame=   88 fps=2.3 q=-0.0 size=    3645kB time=00:00:01.74 bitrate=17150.5kbits/s speed=0.0454x    frame=   90 fps=2.3 q=-0.0 size=    3645kB time=00:00:01.78 bitrate=16765.3kbits/s speed=0.0456x    frame=   92 fps=2.3 q=-0.0 size=    3645kB time=00:00:01.82 bitrate=16397.0kbits/s speed=0.0458x    frame=   94 fps=2.3 q=-0.0 size=    3645kB time=00:00:01.86 bitrate=16044.6kbits/s speed=0.046x    frame=   96 fps=2.3 q=-0.0 size=    3645kB time=00:00:01.90 bitrate=15707.0kbits/s speed=0.0462x    frame=   98 fps=2.4 q=-0.0 size=    4156kB time=00:00:01.94 bitrate=17541.0kbits/s speed=0.0466x    frame=  100 fps=2.4 q=-0.0 size=    4156kB time=00:00:01.98 bitrate=17186.8kbits/s speed=0.0468x    frame=  102 fps=2.4 q=-0.0 size=    4156kB time=00:00:02.02 bitrate=16846.6kbits/s speed=0.047x    frame=  104 fps=2.4 q=-0.0 size=    4156kB time=00:00:02.06 bitrate=16519.7kbits/s speed=0.0471x    frame=  106 fps=2.4 q=-0.0 size=    4156kB time=00:00:02.10 bitrate=16205.1kbits/s speed=0.0473x    frame=  108 fps=2.4 q=-0.0 size=    4156kB time=00:00:02.14 bitrate=15902.4kbits/s speed=0.0475x    frame=  110 fps=2.4 q=-0.0 size=    4656kB time=00:00:02.18 bitrate=17489.8kbits/s speed=0.0478x    frame=  112 fps=2.4 q=-0.0 size=    4656kB time=00:00:02.22 bitrate=17174.8kbits/s speed=0.048x    frame=  114 fps=2.4 q=-0.0 size=    4656kB time=00:00:02.26 bitrate=16870.9kbits/s speed=0.0481x    frame=  116 fps=2.4 q=-0.0 size=    4656kB time=00:00:02.30 bitrate=16577.6kbits/s speed=0.0483x    frame=  118 fps=2.4 q=-0.0 size=    4656kB time=00:00:02.34 bitrate=16294.4kbits/s speed=0.0484x    frame=  120 fps=2.4 q=-0.0 size=    4656kB time=00:00:02.38 bitrate=16020.6kbits/s speed=0.0485x    frame=  121 fps=2.4 q=-0.0 size=    5151kB time=00:00:02.40 bitrate=17575.6kbits/s speed=0.0483x    frame=  122 fps=2.4 q=-0.0 size=    5151kB time=00:00:02.42 bitrate=17430.4kbits/s speed=0.0481x    frame=  124 fps=2.4 q=-0.0 size=    5151kB time=00:00:02.46 bitrate=17147.1kbits/s speed=0.0483x    frame=  126 fps=2.4 q=-0.0 size=    5151kB time=00:00:02.50 bitrate=16872.9kbits/s speed=0.0484x    frame=  128 fps=2.4 q=-0.0 size=    5151kB time=00:00:02.54 bitrate=16607.3kbits/s speed=0.0486x    frame=  130 fps=2.5 q=-0.0 size=    5151kB time=00:00:02.58 bitrate=16349.9kbits/s speed=0.0487x    frame=  132 fps=2.5 q=-0.0 size=    5151kB time=00:00:02.62 bitrate=16100.4kbits/s speed=0.0488x    frame=  134 fps=2.5 q=-0.0 size=    5661kB time=00:00:02.66 bitrate=17427.5kbits/s speed=0.049x    frame=  136 fps=2.5 q=-0.0 size=    5661kB time=00:00:02.70 bitrate=17169.4kbits/s speed=0.0492x    frame=  137 fps=2.5 q=-0.0 size=    5661kB time=00:00:02.72 bitrate=17043.2kbits/s speed=0.0489x    frame=  139 fps=2.5 q=-0.0 size=    5661kB time=00:00:02.76 bitrate=16796.3kbits/s speed=0.049x    frame=  141 fps=2.5 q=-0.0 size=    5661kB time=00:00:02.80 bitrate=16556.5kbits/s speed=0.0492x    frame=  143 fps=2.5 q=-0.0 size=    5661kB time=00:00:02.84 bitrate=16323.3kbits/s speed=0.0492x    frame=  145 fps=2.5 q=-0.0 size=    6168kB time=00:00:02.88 bitrate=17539.7kbits/s speed=0.0493x    frame=  147 fps=2.5 q=-0.0 size=    6168kB time=00:00:02.92 bitrate=17299.6kbits/s speed=0.0496x    frame=  148 fps=2.5 q=-0.0 size=    6168kB time=00:00:02.94 bitrate=17181.9kbits/s speed=0.0495x    frame=  150 fps=2.5 q=-0.0 size=    6168kB time=00:00:02.98 bitrate=16951.4kbits/s speed=0.0496x    frame=  152 fps=2.5 q=-0.0 size=    6168kB time=00:00:03.02 bitrate=16726.9kbits/s speed=0.0497x    frame=  154 fps=2.5 q=-0.0 size=    6168kB time=00:00:03.06 bitrate=16508.3kbits/s speed=0.0498x    frame=  156 fps=2.5 q=-0.0 size=    6168kB time=00:00:03.10 bitrate=16295.4kbits/s speed=0.0498x    frame=  158 fps=2.5 q=-0.0 size=    6673kB time=00:00:03.14 bitrate=17402.8kbits/s speed=0.05x    frame=  160 fps=2.5 q=-0.0 size=    6673kB time=00:00:03.18 bitrate=17183.9kbits/s speed=0.0501x    frame=  162 fps=2.5 q=-0.0 size=    6673kB time=00:00:03.22 bitrate=16970.5kbits/s speed=0.0502x    frame=  164 fps=2.5 q=-0.0 size=    6673kB time=00:00:03.26 bitrate=16762.4kbits/s speed=0.0503x    frame=  166 fps=2.5 q=-0.0 size=    6673kB time=00:00:03.30 bitrate=16559.3kbits/s speed=0.0504x    frame=  168 fps=2.5 q=-0.0 size=    6673kB time=00:00:03.34 bitrate=16361.0kbits/s speed=0.0504x    frame=  170 fps=2.5 q=-0.0 size=    7192kB time=00:00:03.38 bitrate=17426.9kbits/s speed=0.0506x    frame=  172 fps=2.5 q=-0.0 size=    7192kB time=00:00:03.42 bitrate=17223.1kbits/s speed=0.0507x    frame=  174 fps=2.6 q=-0.0 size=    7192kB time=00:00:03.46 bitrate=17024.1kbits/s speed=0.0508x    frame=  176 fps=2.6 q=-0.0 size=    7192kB time=00:00:03.50 bitrate=16829.6kbits/s speed=0.0508x    frame=  178 fps=2.6 q=-0.0 size=    7192kB time=00:00:03.54 bitrate=16639.4kbits/s speed=0.0509x    frame=  180 fps=2.6 q=-0.0 size=    7192kB time=00:00:03.58 bitrate=16453.6kbits/s speed=0.051x    frame=  182 fps=2.6 q=-0.0 size=    7706kB time=00:00:03.62 bitrate=17434.1kbits/s speed=0.0511x    frame=  184 fps=2.6 q=-0.0 size=    7706kB time=00:00:03.66 bitrate=17243.6kbits/s speed=0.0512x    frame=  186 fps=2.6 q=-0.0 size=    7706kB time=00:00:03.70 bitrate=17057.2kbits/s speed=0.0509x    frame=  188 fps=2.6 q=-0.0 size=    7706kB time=00:00:03.74 bitrate=16874.9kbits/s speed=0.051x    frame=  190 fps=2.6 q=-0.0 size=    7706kB time=00:00:03.78 bitrate=16696.3kbits/s speed=0.051x    frame=  192 fps=2.6 q=-0.0 size=    7706kB time=00:00:03.82 bitrate=16521.5kbits/s speed=0.0509x    frame=  194 fps=2.6 q=-0.0 size=    8199kB time=00:00:03.86 bitrate=17395.2kbits/s speed=0.051x    frame=  196 fps=2.6 q=-0.0 size=    8199kB time=00:00:03.90 bitrate=17216.8kbits/s speed=0.0511x    frame=  198 fps=2.6 q=-0.0 size=    8199kB time=00:00:03.94 bitrate=17042.0kbits/s speed=0.0512x    frame=  200 fps=2.6 q=-0.0 size=    8199kB time=00:00:03.98 bitrate=16870.8kbits/s speed=0.0512x    frame=  202 fps=2.6 q=-0.0 size=    8199kB time=00:00:04.02 bitrate=16703.0kbits/s speed=0.0513x    frame=  204 fps=2.6 q=-0.0 size=    8199kB time=00:00:04.06 bitrate=16538.5kbits/s speed=0.0513x    frame=  206 fps=2.6 q=-0.0 size=    8611kB time=00:00:04.10 bitrate=17200.1kbits/s speed=0.0515x    frame=  208 fps=2.6 q=-0.0 size=    8611kB time=00:00:04.14 bitrate=17034.0kbits/s speed=0.0516x    frame=  210 fps=2.6 q=-0.0 size=    8611kB time=00:00:04.18 bitrate=16871.0kbits/s speed=0.0514x    frame=  212 fps=2.6 q=-0.0 size=    8611kB time=00:00:04.22 bitrate=16711.2kbits/s speed=0.0514x    frame=  214 fps=2.6 q=-0.0 size=    8611kB time=00:00:04.26 bitrate=16554.3kbits/s speed=0.0515x    frame=  216 fps=2.6 q=-0.0 size=    8611kB time=00:00:04.30 bitrate=16400.3kbits/s speed=0.0516x    frame=  218 fps=2.6 q=-0.0 size=    9017kB time=00:00:04.34 bitrate=17015.6kbits/s speed=0.0517x    frame=  220 fps=2.6 q=-0.0 size=    9017kB time=00:00:04.38 bitrate=16860.3kbits/s speed=0.0518x    frame=  222 fps=2.6 q=-0.0 size=    9017kB time=00:00:04.42 bitrate=16707.7kbits/s speed=0.0518x    frame=  224 fps=2.6 q=-0.0 size=    9017kB time=00:00:04.46 bitrate=16557.9kbits/s speed=0.0519x    frame=  226 fps=2.6 q=-0.0 size=    9017kB time=00:00:04.50 bitrate=16410.8kbits/s speed=0.0517x    frame=  228 fps=2.6 q=-0.0 size=    9017kB time=00:00:04.54 bitrate=16266.2kbits/s speed=0.0518x    frame=  229 fps=2.6 q=-0.0 size=    9437kB time=00:00:04.56 bitrate=16950.5kbits/s speed=0.0516x    frame=  231 fps=2.6 q=-0.0 size=    9437kB time=00:00:04.60 bitrate=16803.2kbits/s speed=0.0517x    frame=  232 fps=2.6 q=-0.0 size=    9437kB time=00:00:04.62 bitrate=16730.4kbits/s speed=0.0516x    frame=  234 fps=2.6 q=-0.0 size=    9437kB time=00:00:04.66 bitrate=16586.9kbits/s speed=0.0516x    frame=  236 fps=2.6 q=-0.0 size=    9437kB time=00:00:04.70 bitrate=16445.7kbits/s speed=0.0517x    frame=  237 fps=2.6 q=-0.0 size=    9437kB time=00:00:04.72 bitrate=16376.1kbits/s speed=0.0515x    frame=  239 fps=2.6 q=-0.0 size=    9437kB time=00:00:04.76 bitrate=16238.5kbits/s speed=0.0515x    frame=  241 fps=2.6 q=-0.0 size=    9834kB time=00:00:04.80 bitrate=16780.7kbits/s speed=0.0516x    frame=  243 fps=2.6 q=-0.0 size=    9834kB time=00:00:04.84 bitrate=16642.0kbits/s speed=0.0515x    frame=  245 fps=2.6 q=-0.0 size=    9834kB time=00:00:04.88 bitrate=16505.7kbits/s speed=0.0516x    frame=  247 fps=2.6 q=-0.0 size=    9834kB time=00:00:04.92 bitrate=16371.5kbits/s speed=0.0516x    frame=  249 fps=2.6 q=-0.0 size=    9834kB time=00:00:04.96 bitrate=16239.5kbits/s speed=0.0517x    frame=  250 fps=2.6 q=-0.0 size=    9834kB time=00:00:04.98 bitrate=16174.3kbits/s speed=0.0514x    frame=  252 fps=2.6 q=-0.0 size=    9834kB time=00:00:05.02 bitrate=16045.4kbits/s speed=0.0515x    frame=  254 fps=2.6 q=-0.0 size=   10240kB time=00:00:05.06 bitrate=16574.6kbits/s speed=0.0516x    frame=  256 fps=2.6 q=-0.0 size=   10240kB time=00:00:05.10 bitrate=16444.6kbits/s speed=0.0517x    frame=  258 fps=2.6 q=-0.0 size=   10240kB time=00:00:05.14 bitrate=16316.7kbits/s speed=0.0517x    frame=  260 fps=2.6 q=-0.0 size=   10240kB time=00:00:05.18 bitrate=16190.7kbits/s speed=0.0518x    frame=  261 fps=2.6 q=-0.0 size=   10240kB time=00:00:05.20 bitrate=16128.5kbits/s speed=0.0516x    frame=  262 fps=2.6 q=-0.0 size=   10240kB time=00:00:05.22 bitrate=16066.7kbits/s speed=0.0513x    frame=  264 fps=2.6 q=-0.0 size=   10240kB time=00:00:05.26 bitrate=15944.5kbits/s speed=0.0513x    frame=  266 fps=2.6 q=-0.0 size=   10659kB time=00:00:05.30 bitrate=16472.7kbits/s speed=0.0514x    frame=  268 fps=2.6 q=-0.0 size=   10659kB time=00:00:05.34 bitrate=16349.3kbits/s speed=0.0515x    frame=  270 fps=2.6 q=-0.0 size=   10659kB time=00:00:05.38 bitrate=16227.8kbits/s speed=0.0515x    frame=  272 fps=2.6 q=-0.0 size=   10659kB time=00:00:05.42 bitrate=16108.1kbits/s speed=0.0516x    frame=  274 fps=2.6 q=-0.0 size=   10659kB time=00:00:05.46 bitrate=15990.1kbits/s speed=0.0516x    frame=  276 fps=2.6 q=-0.0 size=   10659kB time=00:00:05.50 bitrate=15873.8kbits/s speed=0.0517x    frame=  278 fps=2.6 q=-0.0 size=   11039kB time=00:00:05.54 bitrate=16320.1kbits/s speed=0.0518x    frame=  280 fps=2.6 q=-0.0 size=   11039kB time=00:00:05.58 bitrate=16203.2kbits/s speed=0.0518x    frame=  282 fps=2.6 q=-0.0 size=   11039kB time=00:00:05.62 bitrate=16087.9kbits/s speed=0.0519x    frame=  284 fps=2.6 q=-0.0 size=   11039kB time=00:00:05.66 bitrate=15974.2kbits/s speed=0.0519x    frame=  286 fps=2.6 q=-0.0 size=   11039kB time=00:00:05.70 bitrate=15862.1kbits/s speed=0.0519x    frame=  288 fps=2.6 q=-0.0 size=   11039kB time=00:00:05.74 bitrate=15751.6kbits/s speed=0.052x    frame=  290 fps=2.6 q=-0.0 size=   11475kB time=00:00:05.78 bitrate=16260.5kbits/s speed=0.0521x    frame=  292 fps=2.6 q=-0.0 size=   11475kB time=00:00:05.82 bitrate=16148.7kbits/s speed=0.0521x    frame=  294 fps=2.6 q=-0.0 size=   11475kB time=00:00:05.86 bitrate=16038.5kbits/s speed=0.0522x    frame=  296 fps=2.6 q=-0.0 size=   11475kB time=00:00:05.90 bitrate=15929.8kbits/s speed=0.0522x    frame=  298 fps=2.6 q=-0.0 size=   11475kB time=00:00:05.94 bitrate=15822.5kbits/s speed=0.0522x    frame=  300 fps=2.6 q=-0.0 size=   11475kB time=00:00:05.98 bitrate=15716.7kbits/s speed=0.0523x    frame=  302 fps=2.6 q=-0.0 size=   11885kB time=00:00:06.02 bitrate=16170.4kbits/s speed=0.0524x    frame=  304 fps=2.6 q=-0.0 size=   11885kB time=00:00:06.06 bitrate=16063.7kbits/s speed=0.0524x    frame=  306 fps=2.6 q=-0.0 size=   11885kB time=00:00:06.10 bitrate=15958.4kbits/s speed=0.0524x    frame=  308 fps=2.6 q=-0.0 size=   11885kB time=00:00:06.14 bitrate=15854.4kbits/s speed=0.0525x    frame=  310 fps=2.6 q=-0.0 size=   11885kB time=00:00:06.18 bitrate=15751.8kbits/s speed=0.0525x    frame=  312 fps=2.6 q=-0.0 size=   11885kB time=00:00:06.22 bitrate=15650.5kbits/s speed=0.0525x    frame=  314 fps=2.6 q=-0.0 size=   12298kB time=00:00:06.26 bitrate=16090.4kbits/s speed=0.0526x    frame=  316 fps=2.6 q=-0.0 size=   12298kB time=00:00:06.30 bitrate=15988.2kbits/s speed=0.0527x    frame=  318 fps=2.6 q=-0.0 size=   12298kB time=00:00:06.34 bitrate=15887.4kbits/s speed=0.0527x    frame=  320 fps=2.6 q=-0.0 size=   12298kB time=00:00:06.38 bitrate=15787.8kbits/s speed=0.0527x    frame=  322 fps=2.6 q=-0.0 size=   12298kB time=00:00:06.42 bitrate=15689.4kbits/s speed=0.0527x    frame=  324 fps=2.6 q=-0.0 size=   12298kB time=00:00:06.46 bitrate=15592.3kbits/s speed=0.0527x    frame=  326 fps=2.6 q=-0.0 size=   12678kB time=00:00:06.50 bitrate=15976.0kbits/s speed=0.0528x    frame=  328 fps=2.7 q=-0.0 size=   12678kB time=00:00:06.54 bitrate=15878.3kbits/s speed=0.0529x    frame=  330 fps=2.7 q=-0.0 size=   12678kB time=00:00:06.58 bitrate=15781.8kbits/s speed=0.0529x    frame=  332 fps=2.7 q=-0.0 size=   12678kB time=00:00:06.62 bitrate=15686.4kbits/s speed=0.0529x    frame=  334 fps=2.7 q=-0.0 size=   12678kB time=00:00:06.66 bitrate=15592.2kbits/s speed=0.0529x    frame=  336 fps=2.7 q=-0.0 size=   12678kB time=00:00:06.70 bitrate=15499.2kbits/s speed=0.053x    frame=  338 fps=2.7 q=-0.0 size=   13118kB time=00:00:06.74 bitrate=15941.6kbits/s speed=0.053x    frame=  340 fps=2.7 q=-0.0 size=   13118kB time=00:00:06.78 bitrate=15847.6kbits/s speed=0.0531x    frame=  342 fps=2.7 q=-0.0 size=   13118kB time=00:00:06.82 bitrate=15754.7kbits/s speed=0.0531x    frame=  344 fps=2.7 q=-0.0 size=   13118kB time=00:00:06.86 bitrate=15662.8kbits/s speed=0.053x    frame=  345 fps=2.7 q=-0.0 size=   13118kB time=00:00:06.88 bitrate=15617.3kbits/s speed=0.0529x    frame=  347 fps=2.7 q=-0.0 size=   13118kB time=00:00:06.92 bitrate=15527.0kbits/s speed=0.0529x    frame=  349 fps=2.7 q=-0.0 size=   13503kB time=00:00:06.96 bitrate=15890.5kbits/s speed=0.0529x    frame=  351 fps=2.7 q=-0.0 size=   13503kB time=00:00:07.00 bitrate=15799.7kbits/s speed=0.053x    frame=  353 fps=2.7 q=-0.0 size=   13503kB time=00:00:07.04 bitrate=15710.0kbits/s speed=0.0531x    frame=  355 fps=2.7 q=-0.0 size=   13503kB time=00:00:07.08 bitrate=15621.2kbits/s speed=0.0531x    frame=  357 fps=2.7 q=-0.0 size=   13503kB time=00:00:07.12 bitrate=15533.5kbits/s speed=0.0531x    frame=  359 fps=2.7 q=-0.0 size=   13503kB time=00:00:07.16 bitrate=15446.7kbits/s speed=0.0531x    frame=  361 fps=2.7 q=-0.0 size=   13937kB time=00:00:07.20 bitrate=15855.1kbits/s speed=0.0532x    frame=  363 fps=2.7 q=-0.0 size=   13937kB time=00:00:07.24 bitrate=15767.5kbits/s speed=0.0532x    frame=  365 fps=2.7 q=-0.0 size=   13937kB time=00:00:07.28 bitrate=15680.8kbits/s speed=0.0533x    frame=  367 fps=2.7 q=-0.0 size=   13937kB time=00:00:07.32 bitrate=15595.2kbits/s speed=0.0533x    frame=  369 fps=2.7 q=-0.0 size=   13937kB time=00:00:07.36 bitrate=15510.4kbits/s speed=0.0533x    frame=  371 fps=2.7 q=-0.0 size=   13937kB time=00:00:07.40 bitrate=15426.6kbits/s speed=0.0533x    frame=  373 fps=2.7 q=-0.0 size=   14313kB time=00:00:07.44 bitrate=15757.0kbits/s speed=0.0533x    frame=  375 fps=2.7 q=-0.0 size=   14313kB time=00:00:07.48 bitrate=15672.8kbits/s speed=0.0534x    frame=  377 fps=2.7 q=-0.0 size=   14313kB time=00:00:07.52 bitrate=15589.4kbits/s speed=0.0535x    frame=  379 fps=2.7 q=-0.0 size=   14313kB time=00:00:07.56 bitrate=15507.0kbits/s speed=0.0535x    frame=  381 fps=2.7 q=-0.0 size=   14313kB time=00:00:07.60 bitrate=15425.4kbits/s speed=0.0535x    frame=  383 fps=2.7 q=-0.0 size=   14313kB time=00:00:07.64 bitrate=15344.6kbits/s speed=0.0535x    frame=  385 fps=2.7 q=-0.0 size=   14756kB time=00:00:07.68 bitrate=15737.2kbits/s speed=0.0535x    frame=  387 fps=2.7 q=-0.0 size=   14756kB time=00:00:07.72 bitrate=15655.7kbits/s speed=0.0536x    frame=  389 fps=2.7 q=-0.0 size=   14756kB time=00:00:07.76 bitrate=15575.0kbits/s speed=0.0536x    frame=  391 fps=2.7 q=-0.0 size=   14756kB time=00:00:07.80 bitrate=15495.1kbits/s speed=0.0536x    frame=  393 fps=2.7 q=-0.0 size=   14756kB time=00:00:07.84 bitrate=15416.1kbits/s speed=0.0536x    frame=  395 fps=2.7 q=-0.0 size=   14756kB time=00:00:07.88 bitrate=15337.8kbits/s speed=0.0537x    frame=  397 fps=2.7 q=-0.0 size=   15142kB time=00:00:07.92 bitrate=15660.5kbits/s speed=0.0537x    frame=  399 fps=2.7 q=-0.0 size=   15142kB time=00:00:07.96 bitrate=15581.9kbits/s speed=0.0538x    frame=  401 fps=2.7 q=-0.0 size=   15142kB time=00:00:08.00 bitrate=15504.0kbits/s speed=0.0538x    frame=  403 fps=2.7 q=-0.0 size=   15142kB time=00:00:08.04 bitrate=15426.8kbits/s speed=0.0538x    frame=  405 fps=2.7 q=-0.0 size=   15142kB time=00:00:08.08 bitrate=15350.5kbits/s speed=0.0538x    frame=  407 fps=2.7 q=-0.0 size=   15142kB time=00:00:08.12 bitrate=15274.9kbits/s speed=0.0538x    frame=  409 fps=2.7 q=-0.0 size=   15558kB time=00:00:08.16 bitrate=15616.7kbits/s speed=0.0538x    frame=  411 fps=2.7 q=-0.0 size=   15558kB time=00:00:08.20 bitrate=15540.5kbits/s speed=0.0539x    frame=  413 fps=2.7 q=-0.0 size=   15558kB time=00:00:08.24 bitrate=15465.1kbits/s speed=0.0539x    frame=  415 fps=2.7 q=-0.0 size=   15558kB time=00:00:08.28 bitrate=15390.4kbits/s speed=0.0539x    frame=  417 fps=2.7 q=-0.0 size=   15558kB time=00:00:08.32 bitrate=15316.4kbits/s speed=0.0539x    frame=  419 fps=2.7 q=-0.0 size=   15558kB time=00:00:08.36 bitrate=15243.1kbits/s speed=0.0539x    frame=  421 fps=2.7 q=-0.0 size=   15978kB time=00:00:08.40 bitrate=15581.0kbits/s speed=0.0539x    frame=  423 fps=2.7 q=-0.0 size=   15978kB time=00:00:08.44 bitrate=15507.1kbits/s speed=0.054x    frame=  425 fps=2.7 q=-0.0 size=   15978kB time=00:00:08.48 bitrate=15434.0kbits/s speed=0.054x    frame=  427 fps=2.7 q=-0.0 size=   15978kB time=00:00:08.52 bitrate=15361.6kbits/s speed=0.054x    frame=  429 fps=2.7 q=-0.0 size=   15978kB time=00:00:08.56 bitrate=15289.8kbits/s speed=0.054x    frame=  431 fps=2.7 q=-0.0 size=   15978kB time=00:00:08.60 bitrate=15218.7kbits/s speed=0.054x    frame=  433 fps=2.7 q=-0.0 size=   16386kB time=00:00:08.64 bitrate=15534.1kbits/s speed=0.054x    frame=  435 fps=2.7 q=-0.0 size=   16386kB time=00:00:08.68 bitrate=15462.6kbits/s speed=0.0541x    frame=  437 fps=2.7 q=-0.0 size=   16386kB time=00:00:08.72 bitrate=15391.6kbits/s speed=0.0541x    frame=  439 fps=2.7 q=-0.0 size=   16386kB time=00:00:08.76 bitrate=15321.4kbits/s speed=0.0541x    frame=  441 fps=2.7 q=-0.0 size=   16386kB time=00:00:08.80 bitrate=15251.7kbits/s speed=0.0541x    frame=  443 fps=2.7 q=-0.0 size=   16386kB time=00:00:08.84 bitrate=15182.7kbits/s speed=0.0541x    frame=  445 fps=2.7 q=-0.0 size=   16789kB time=00:00:08.88 bitrate=15486.1kbits/s speed=0.0541x    frame=  447 fps=2.7 q=-0.0 size=   16789kB time=00:00:08.92 bitrate=15416.7kbits/s speed=0.0542x    frame=  449 fps=2.7 q=-0.0 size=   16789kB time=00:00:08.96 bitrate=15347.9kbits/s speed=0.0542x    frame=  451 fps=2.7 q=-0.0 size=   16789kB time=00:00:09.00 bitrate=15279.7kbits/s speed=0.0542x    frame=  453 fps=2.7 q=-0.0 size=   16789kB time=00:00:09.04 bitrate=15212.1kbits/s speed=0.0542x    frame=  455 fps=2.7 q=-0.0 size=   16789kB time=00:00:09.08 bitrate=15145.0kbits/s speed=0.0542x    frame=  457 fps=2.7 q=-0.0 size=   17208kB time=00:00:09.12 bitrate=15455.5kbits/s speed=0.0542x    frame=  459 fps=2.7 q=-0.0 size=   17208kB time=00:00:09.16 bitrate=15388.0kbits/s speed=0.0542x    frame=  460 fps=2.7 q=-0.0 size=   17208kB time=00:00:09.18 bitrate=15354.5kbits/s speed=0.0541x    frame=  462 fps=2.7 q=-0.0 size=   17208kB time=00:00:09.22 bitrate=15287.9kbits/s speed=0.0541x    frame=  464 fps=2.7 q=-0.0 size=   17208kB time=00:00:09.26 bitrate=15221.8kbits/s speed=0.0541x    frame=  466 fps=2.7 q=-0.0 size=   17208kB time=00:00:09.30 bitrate=15156.4kbits/s speed=0.0541x    frame=  468 fps=2.7 q=-0.0 size=   17208kB time=00:00:09.34 bitrate=15091.5kbits/s speed=0.0541x    frame=  470 fps=2.7 q=-0.0 size=   17602kB time=00:00:09.38 bitrate=15371.3kbits/s speed=0.0542x    frame=  472 fps=2.7 q=-0.0 size=   17602kB time=00:00:09.42 bitrate=15306.1kbits/s speed=0.0542x    frame=  474 fps=2.7 q=-0.0 size=   17602kB time=00:00:09.46 bitrate=15241.4kbits/s speed=0.0542x    frame=  476 fps=2.7 q=-0.0 size=   17602kB time=00:00:09.50 bitrate=15177.2kbits/s speed=0.0542x    frame=  478 fps=2.7 q=-0.0 size=   17602kB time=00:00:09.54 bitrate=15113.6kbits/s speed=0.0542x    frame=  480 fps=2.7 q=-0.0 size=   17602kB time=00:00:09.58 bitrate=15050.5kbits/s speed=0.0542x    frame=  482 fps=2.7 q=-0.0 size=   18041kB time=00:00:09.62 bitrate=15361.7kbits/s speed=0.0543x    frame=  484 fps=2.7 q=-0.0 size=   18041kB time=00:00:09.66 bitrate=15298.1kbits/s speed=0.0543x    frame=  486 fps=2.7 q=-0.0 size=   18041kB time=00:00:09.70 bitrate=15235.1kbits/s speed=0.0543x    frame=  488 fps=2.7 q=-0.0 size=   18041kB time=00:00:09.74 bitrate=15172.5kbits/s speed=0.0543x    frame=  490 fps=2.7 q=-0.0 size=   18041kB time=00:00:09.78 bitrate=15110.5kbits/s speed=0.0543x    frame=  492 fps=2.7 q=-0.0 size=   18041kB time=00:00:09.82 bitrate=15048.9kbits/s speed=0.0543x    frame=  494 fps=2.7 q=-0.0 size=   18422kB time=00:00:09.86 bitrate=15303.8kbits/s speed=0.0544x    frame=  496 fps=2.7 q=-0.0 size=   18422kB time=00:00:09.90 bitrate=15241.9kbits/s speed=0.0544x    frame=  498 fps=2.7 q=-0.0 size=   18422kB time=00:00:09.94 bitrate=15180.6kbits/s speed=0.0544x    frame=  500 fps=2.7 q=-0.0 size=   18422kB time=00:00:09.98 bitrate=15119.8kbits/s speed=0.0544x    frame=  500 fps=2.7 q=-0.0 Lsize=   18727kB time=00:00:09.98 bitrate=15370.0kbits/s speed=0.0543x    
video:18717kB audio:0kB subtitle:0kB other streams:0kB global headers:3kB muxing overhead: 0.049127%
bench: utime=155.524s
bench: maxrss=208944kB
